<?xml version="1.0" encoding="utf-8"?>
<!-- Generator: Adobe Illustrator 24.0.1, SVG Export Plug-In . SVG Version: 6.00 Build 0)  -->
<svg version="1.0" id="Layer_1" xmlns="http://www.w3.org/2000/svg" xmlns:xlink="http://www.w3.org/1999/xlink" x="0px" y="0px"
	 viewBox="0 0 834 360" style="enable-background:new 0 0 834 360;" xml:space="preserve">
<style type="text/css">
	.st0{fill:#FFFFFF;}
	.st1{fill:#4300FF;}
	.st2{fill:#4300FF;stroke:#FFFFFF;stroke-width:2;stroke-miterlimit:10;}
	.st3{fill:#EE3524;}
	.st4{fill:#001C5A;}
	.st5{fill-rule:evenodd;clip-rule:evenodd;fill:#4300FF;}
	.st6{fill-rule:evenodd;clip-rule:evenodd;fill:#FFFFFF;}
	.st7{fill:none;stroke:#FFFFFF;stroke-width:8;stroke-miterlimit:10;}
	.st8{fill:none;stroke:#4300FF;stroke-width:10;stroke-miterlimit:10;}
	.st9{fill:none;stroke:#4300FF;stroke-width:2;stroke-miterlimit:10;}
	.st10{fill:#2A009F;}
	.st11{fill-rule:evenodd;clip-rule:evenodd;fill:#4300FF;stroke:#FFFFFF;stroke-width:12;stroke-miterlimit:10;}
	.st12{fill:none;}
	.st13{fill:none;stroke:#4300FF;stroke-width:17;stroke-miterlimit:10;}
</style>
<g>
	<path d="M303.89,182.2c0-3.12,0.59-6.19,1.76-9.22s2.89-5.74,5.15-8.14c2.26-2.4,4.99-4.34,8.21-5.83
		c3.21-1.49,6.89-2.23,11.02-2.23c4.94,0,9.23,1.02,12.85,3.06c3.62,2.04,6.32,4.74,8.1,8.1l-10.73,7.63
		c-0.48-1.25-1.12-2.28-1.91-3.1c-0.79-0.82-1.67-1.46-2.63-1.94c-0.96-0.48-1.96-0.82-2.99-1.01c-1.03-0.19-2.03-0.29-2.99-0.29
		c-2.02,0-3.76,0.4-5.22,1.19c-1.46,0.79-2.66,1.82-3.6,3.1c-0.94,1.27-1.63,2.71-2.09,4.32c-0.46,1.61-0.69,3.2-0.69,4.79
		c0,1.78,0.26,3.48,0.79,5.11c0.53,1.63,1.29,3.07,2.3,4.32c1.01,1.25,2.24,2.24,3.71,2.99c1.46,0.74,3.11,1.12,4.93,1.12
		c0.96,0,1.94-0.11,2.95-0.32c1.01-0.22,1.98-0.58,2.92-1.08c0.94-0.5,1.78-1.15,2.52-1.94s1.33-1.76,1.76-2.92l11.45,6.84
		c-0.77,1.87-1.93,3.55-3.49,5.04c-1.56,1.49-3.34,2.74-5.33,3.74c-1.99,1.01-4.13,1.78-6.41,2.3c-2.28,0.53-4.5,0.79-6.66,0.79
		c-3.79,0-7.26-0.76-10.4-2.27c-3.14-1.51-5.86-3.52-8.14-6.01c-2.28-2.5-4.04-5.33-5.29-8.5
		C304.51,188.68,303.89,185.46,303.89,182.2z"/>
	<path d="M380.59,208.62c-3.89,0-7.42-0.74-10.58-2.23c-3.17-1.49-5.88-3.44-8.13-5.87c-2.26-2.42-4.01-5.2-5.26-8.32
		c-1.25-3.12-1.87-6.34-1.87-9.65c0-3.36,0.65-6.6,1.95-9.72c1.29-3.12,3.11-5.87,5.44-8.24c2.33-2.38,5.09-4.27,8.28-5.69
		c3.19-1.42,6.68-2.12,10.48-2.12c3.89,0,7.42,0.75,10.58,2.23c3.17,1.49,5.88,3.46,8.14,5.9c2.25,2.45,3.99,5.23,5.22,8.35
		c1.22,3.12,1.84,6.31,1.84,9.58c0,3.36-0.65,6.59-1.94,9.68c-1.3,3.1-3.1,5.83-5.4,8.21s-5.05,4.28-8.24,5.72
		C387.87,207.9,384.38,208.62,380.59,208.62z M369,182.7c0,1.73,0.24,3.4,0.72,5c0.48,1.61,1.2,3.04,2.16,4.28
		c0.96,1.25,2.17,2.26,3.64,3.02c1.46,0.77,3.2,1.15,5.22,1.15s3.77-0.4,5.26-1.19s2.7-1.82,3.64-3.1c0.94-1.27,1.63-2.72,2.09-4.36
		c0.46-1.63,0.68-3.29,0.68-4.97c0-1.73-0.24-3.4-0.72-5c-0.48-1.61-1.21-3.02-2.2-4.25c-0.98-1.22-2.21-2.21-3.67-2.95
		c-1.46-0.74-3.18-1.12-5.15-1.12c-2.02,0-3.76,0.38-5.22,1.15c-1.46,0.77-2.68,1.79-3.64,3.06c-0.96,1.27-1.67,2.71-2.12,4.32
		C369.22,179.38,369,181.02,369,182.7z"/>
	<path d="M429.06,183.06v25.13h-14.04v-51.12h10.95l20.52,25.99v-25.99h14.04v51.12h-11.16L429.06,183.06z"/>
	<path d="M485.94,183.06v25.13H471.9v-51.12h10.94l20.52,25.99v-25.99h14.04v51.12h-11.16L485.94,183.06z"/>
	<path d="M565.21,195.95v12.24h-36.43v-51.12h35.79v12.24h-21.74v7.2h18.58v11.38h-18.58v8.06H565.21z"/>
	<path d="M571.03,182.2c0-3.12,0.59-6.19,1.76-9.22c1.18-3.02,2.89-5.74,5.15-8.14c2.26-2.4,4.99-4.34,8.21-5.83
		c3.21-1.49,6.89-2.23,11.02-2.23c4.94,0,9.23,1.02,12.85,3.06c3.62,2.04,6.32,4.74,8.1,8.1l-10.73,7.63
		c-0.48-1.25-1.12-2.28-1.91-3.1c-0.79-0.82-1.67-1.46-2.63-1.94c-0.96-0.48-1.96-0.82-2.99-1.01c-1.03-0.19-2.03-0.29-2.99-0.29
		c-2.02,0-3.76,0.4-5.22,1.19s-2.66,1.82-3.6,3.1c-0.94,1.27-1.63,2.71-2.09,4.32c-0.46,1.61-0.68,3.2-0.68,4.79
		c0,1.78,0.26,3.48,0.79,5.11c0.53,1.63,1.3,3.07,2.3,4.32c1.01,1.25,2.24,2.24,3.71,2.99c1.46,0.74,3.11,1.12,4.93,1.12
		c0.96,0,1.94-0.11,2.95-0.32c1.01-0.22,1.98-0.58,2.92-1.08s1.78-1.15,2.52-1.94s1.33-1.76,1.76-2.92l11.45,6.84
		c-0.77,1.87-1.93,3.55-3.49,5.04c-1.56,1.49-3.34,2.74-5.33,3.74s-4.13,1.78-6.41,2.3c-2.28,0.53-4.5,0.79-6.66,0.79
		c-3.79,0-7.26-0.76-10.4-2.27s-5.86-3.52-8.13-6.01c-2.28-2.5-4.04-5.33-5.29-8.5S571.03,185.46,571.03,182.2z"/>
	<path d="M666.31,169.31h-14.69v38.88h-14.04v-38.88h-14.76v-12.24h43.49V169.31z"/>
	<path class="st1" d="M708,196.16c1.63,0,3.03-0.36,4.18-1.08c1.15-0.72,2.09-1.67,2.81-2.84c0.72-1.18,1.25-2.53,1.58-4.07
		s0.5-3.14,0.5-4.82v-26.28h14.04v26.28c0,3.55-0.46,6.88-1.37,9.97s-2.33,5.77-4.25,8.03c-1.92,2.26-4.33,4.03-7.24,5.33
		s-6.32,1.94-10.26,1.94c-4.08,0-7.57-0.68-10.47-2.05c-2.91-1.37-5.29-3.2-7.16-5.51c-1.87-2.3-3.24-4.98-4.11-8.03
		c-0.86-3.05-1.29-6.28-1.29-9.68v-26.28H699v26.28c0,1.68,0.17,3.3,0.5,4.86c0.34,1.56,0.87,2.93,1.58,4.1
		c0.72,1.18,1.64,2.11,2.77,2.81C704.99,195.82,706.37,196.16,708,196.16z"/>
	<path class="st1" d="M772.18,173.77c-1.44-0.86-2.93-1.63-4.46-2.3c-1.3-0.58-2.75-1.12-4.36-1.62c-1.61-0.5-3.18-0.76-4.72-0.76
		c-1.25,0-2.24,0.19-2.99,0.58c-0.74,0.38-1.12,1.03-1.12,1.94c0,0.67,0.21,1.22,0.65,1.66c0.43,0.43,1.05,0.83,1.87,1.19
		c0.82,0.36,1.81,0.71,2.99,1.04c1.18,0.34,2.51,0.75,4,1.22c2.35,0.72,4.47,1.51,6.37,2.38s3.52,1.88,4.86,3.06
		c1.34,1.18,2.38,2.6,3.1,4.28c0.72,1.68,1.08,3.72,1.08,6.12c0,3.07-0.56,5.65-1.69,7.74c-1.13,2.09-2.62,3.76-4.46,5
		c-1.85,1.25-3.94,2.15-6.26,2.7c-2.33,0.55-4.67,0.83-7.02,0.83c-1.87,0-3.79-0.14-5.76-0.43s-3.92-0.7-5.87-1.22
		c-1.94-0.53-3.82-1.15-5.62-1.87c-1.8-0.72-3.47-1.54-5.01-2.45l6.05-12.31c1.68,1.06,3.43,1.99,5.26,2.81
		c1.54,0.72,3.28,1.37,5.22,1.94c1.94,0.58,3.92,0.86,5.94,0.86c1.54,0,2.6-0.2,3.2-0.61c0.6-0.41,0.9-0.95,0.9-1.62
		c0-0.72-0.3-1.33-0.9-1.84c-0.6-0.5-1.43-0.95-2.48-1.33c-1.06-0.38-2.27-0.77-3.64-1.15c-1.37-0.38-2.82-0.84-4.36-1.37
		c-2.26-0.77-4.2-1.59-5.83-2.48c-1.63-0.89-2.98-1.9-4.03-3.02c-1.05-1.13-1.84-2.41-2.34-3.85c-0.5-1.44-0.76-3.1-0.76-4.97
		c0-2.83,0.52-5.33,1.55-7.49c1.03-2.16,2.44-3.96,4.21-5.4c1.78-1.44,3.8-2.53,6.08-3.28s4.69-1.12,7.24-1.12
		c1.87,0,3.7,0.18,5.47,0.54c1.78,0.36,3.49,0.82,5.15,1.37s3.2,1.15,4.64,1.8c1.44,0.65,2.74,1.26,3.89,1.84L772.18,173.77z"/>
</g>
<path d="M113.2,132.36l-4.22,21.26h8.44v25.97H85.44v-26.78l6.82-20.45H113.2z M153.61,132.36l-4.22,21.26h8.44v25.97h-31.97v-26.78
	l6.82-20.45H153.61z"/>
<path class="st1" d="M169.9,227.82l4.22-21.26h-8.44v-25.97h31.97v26.78l-6.82,20.45H169.9z M210.31,227.82l4.22-21.26h-8.44v-25.97
	h31.97v26.78l-6.82,20.45H210.31z"/>
<polygon points="708.65,132.52 711.23,140.46 719.58,140.46 712.83,145.37 715.41,153.31 708.65,148.4 701.9,153.31 704.48,145.37 
	697.72,140.46 706.07,140.46 "/>
<path class="st1" d="M289.46,296.09H161.3c-64.24,0-116.5-52.26-116.5-116.5s52.26-116.5,116.5-116.5s116.5,52.26,116.5,116.5
	c0,28.08-9.9,54.69-28.03,75.8L289.46,296.09z M161.3,80.09c-54.86,0-99.5,44.64-99.5,99.5s44.64,99.5,99.5,99.5h87.84l-22.99-23.58
	l5.87-5.93c18.56-18.75,28.78-43.61,28.78-69.98C260.8,124.73,216.17,80.09,161.3,80.09z"/>
</svg>
